# xmcd
#
# Track frame offsets:
#	150
#	19050
#	43576
#	64584
#	82350
#	97650
#	112126
#	137775
#	151800
#	175125
#	192150
#	212400
#	231001
#	256650
#
# Disc length: 3698 seconds
#
# Revision: 1
# Processed by: cddbd v1.5.2PL0 Copyright (c) Steve Scherf et al.
# Submitted via: audiograbber 1.83.01
#
DISCID=b10e700e
DTITLE=Michael Van Merwyk - Catching The Rain
DYEAR=2009
DGENRE=Blues
TTITLE0=Watch out
TTITLE1=Hard way to go
TTITLE2=Shut up
TTITLE3=Here comes love
TTITLE4=Cheeky Darling
TTITLE5=Love thinking about my baby
TTITLE6=Tell me ya'll
TTITLE7=If you want me to leave
TTITLE8=A soul ain't worth a dime
TTITLE9=The Boogalizer
TTITLE10=Smile and walk
TTITLE11=Love grown cold
TTITLE12=Nothing but life
TTITLE13=Oh Yeah 4_0
EXTD=
EXTT0=
EXTT1=
EXTT2=
EXTT3=
EXTT4=
EXTT5=
EXTT6=
EXTT7=
EXTT8=
EXTT9=
EXTT10=
EXTT11=
EXTT12=
EXTT13=
PLAYORDER=
